<?xml version="1.0" encoding="UTF-8" standalone="no"?>
<!DOCTYPE svg PUBLIC "-//W3C//DTD SVG 1.1//EN"
 "http://www.w3.org/Graphics/SVG/1.1/DTD/svg11.dtd">
<!-- Generated by graphviz version 2.40.1 (20161225.0304)
 -->
<!-- Title: %3 Pages: 1 -->
<svg width="889pt" height="190pt"
 viewBox="0.00 0.00 888.88 190.31" xmlns="http://www.w3.org/2000/svg" xmlns:xlink="http://www.w3.org/1999/xlink">
<g id="graph0" class="graph" transform="scale(1 1) rotate(0) translate(4 186.3087)">
<title>%3</title>
<polygon fill="#ffffff" stroke="transparent" points="-4,4 -4,-186.3087 884.8848,-186.3087 884.8848,4 -4,4"/>
<!-- 0 -->
<g id="node1" class="node">
<title>0</title>
<polygon fill="#d3d3d3" stroke="#000000" points="21,-172.9239 0,-172.9239 0,-154.9239 21,-154.9239 21,-172.9239"/>
<text text-anchor="middle" x="10.5" y="-161.7239" font-family="Times,serif" font-size="9.00" fill="#000000">0</text>
</g>
<!-- 1 -->
<g id="node2" class="node">
<title>1</title>
<polygon fill="#d3d3d3" stroke="#000000" points="60,-172.9239 39,-172.9239 39,-154.9239 60,-154.9239 60,-172.9239"/>
<text text-anchor="middle" x="49.5" y="-161.7239" font-family="Times,serif" font-size="9.00" fill="#000000">1</text>
</g>
<!-- 21 -->
<g id="node22" class="node">
<title>21</title>
<ellipse fill="#add8e6" stroke="#add8e6" cx="68.5" cy="-91.1543" rx="18.2703" ry="18.2703"/>
<text text-anchor="middle" x="68.5" y="-88.9543" font-family="Times,serif" font-size="9.00" fill="#000000">21</text>
</g>
<!-- 1&#45;&gt;21 -->
<g id="edge7" class="edge">
<title>1&#45;&gt;21</title>
<path fill="none" stroke="#00ff00" stroke-width=".1303" d="M51.9064,-154.7076C54.2544,-145.7147 57.9456,-131.5774 61.2511,-118.9176"/>
<polygon fill="#00ff00" stroke="#00ff00" stroke-width=".1303" points="64.6463,-119.7679 63.7862,-109.208 57.8734,-117.9994 64.6463,-119.7679"/>
</g>
<!-- 2 -->
<g id="node3" class="node">
<title>2</title>
<polygon fill="#d3d3d3" stroke="#000000" points="357,-172.9239 336,-172.9239 336,-154.9239 357,-154.9239 357,-172.9239"/>
<text text-anchor="middle" x="346.5" y="-161.7239" font-family="Times,serif" font-size="9.00" fill="#000000">2</text>
</g>
<!-- 3 -->
<g id="node4" class="node">
<title>3</title>
<polygon fill="#d3d3d3" stroke="#000000" points="168,-172.9239 147,-172.9239 147,-154.9239 168,-154.9239 168,-172.9239"/>
<text text-anchor="middle" x="157.5" y="-161.7239" font-family="Times,serif" font-size="9.00" fill="#000000">3</text>
</g>
<!-- 3&#45;&gt;21 -->
<g id="edge10" class="edge">
<title>3&#45;&gt;21</title>
<path fill="none" stroke="#ff0000" stroke-width=".2266" stroke-dasharray="1,5" d="M146.941,-155.2905C133.2498,-144.096 109.0051,-124.2727 91.0824,-109.6185"/>
<polygon fill="#ff0000" stroke="#ff0000" stroke-width=".2266" points="92.8229,-106.5206 82.8658,-102.9003 88.392,-111.9398 92.8229,-106.5206"/>
</g>
<!-- 22 -->
<g id="node23" class="node">
<title>22</title>
<ellipse fill="#add8e6" stroke="#add8e6" cx="196.5" cy="-18.3848" rx="18.2703" ry="18.2703"/>
<text text-anchor="middle" x="196.5" y="-16.1848" font-family="Times,serif" font-size="9.00" fill="#000000">22</text>
</g>
<!-- 3&#45;&gt;22 -->
<g id="edge9" class="edge">
<title>3&#45;&gt;22</title>
<path fill="none" stroke="#00ff00" stroke-width=".3511" d="M159.9396,-154.8198C165.6576,-133.4815 180.1145,-79.5317 189.0407,-46.2212"/>
<polygon fill="#00ff00" stroke="#00ff00" stroke-width=".3511" points="192.5187,-46.764 191.7264,-36.1989 185.7572,-44.9521 192.5187,-46.764"/>
</g>
<!-- 24 -->
<g id="node25" class="node">
<title>24</title>
<ellipse fill="none" stroke="#000000" cx="282.5" cy="-91.1543" rx="18.2703" ry="18.2703"/>
<text text-anchor="middle" x="282.5" y="-88.9543" font-family="Times,serif" font-size="9.00" fill="#000000">24</text>
</g>
<!-- 3&#45;&gt;24 -->
<g id="edge12" class="edge">
<title>3&#45;&gt;24</title>
<path fill="none" stroke="#00ff00" stroke-width=".1042" d="M166.3569,-154.6772C169.6652,-151.5322 173.5754,-148.1548 177.5,-145.5391 209.2711,-124.3642 222.2735,-128.348 255.5,-109.5391 256.6104,-108.9105 257.7342,-108.2504 258.8604,-107.5692"/>
<polygon fill="#00ff00" stroke="#00ff00" stroke-width=".1042" points="260.8406,-110.4571 267.3605,-102.106 257.0558,-104.5685 260.8406,-110.4571"/>
</g>
<!-- 4 -->
<g id="node5" class="node">
<title>4</title>
<polygon fill="#d3d3d3" stroke="#000000" points="99,-172.9239 78,-172.9239 78,-154.9239 99,-154.9239 99,-172.9239"/>
<text text-anchor="middle" x="88.5" y="-161.7239" font-family="Times,serif" font-size="9.00" fill="#000000">4</text>
</g>
<!-- 4&#45;&gt;21 -->
<g id="edge3" class="edge">
<title>4&#45;&gt;21</title>
<path fill="none" stroke="#00ff00" stroke-width=".1423" d="M85.967,-154.7076C83.4788,-145.6543 79.5577,-131.3874 76.0605,-118.6629"/>
<polygon fill="#00ff00" stroke="#00ff00" stroke-width=".1423" points="79.4072,-117.6328 73.3822,-108.9179 72.6575,-119.488 79.4072,-117.6328"/>
</g>
<!-- 5 -->
<g id="node6" class="node">
<title>5</title>
<polygon fill="#d3d3d3" stroke="#000000" points="396,-172.9239 375,-172.9239 375,-154.9239 396,-154.9239 396,-172.9239"/>
<text text-anchor="middle" x="385.5" y="-161.7239" font-family="Times,serif" font-size="9.00" fill="#000000">5</text>
</g>
<!-- 6 -->
<g id="node7" class="node">
<title>6</title>
<polygon fill="#d3d3d3" stroke="#000000" points="435,-172.9239 414,-172.9239 414,-154.9239 435,-154.9239 435,-172.9239"/>
<text text-anchor="middle" x="424.5" y="-161.7239" font-family="Times,serif" font-size="9.00" fill="#000000">6</text>
</g>
<!-- 7 -->
<g id="node8" class="node">
<title>7</title>
<polygon fill="#d3d3d3" stroke="#000000" points="246,-100.1543 225,-100.1543 225,-82.1543 246,-82.1543 246,-100.1543"/>
<text text-anchor="middle" x="235.5" y="-88.9543" font-family="Times,serif" font-size="9.00" fill="#000000">7</text>
</g>
<!-- 7&#45;&gt;22 -->
<g id="edge11" class="edge">
<title>7&#45;&gt;22</title>
<path fill="none" stroke="#ff0000" stroke-width=".4289" stroke-dasharray="1,5" d="M230.5606,-81.938C225.4476,-72.3978 217.2317,-57.0677 210.1501,-43.8543"/>
<polygon fill="#ff0000" stroke="#ff0000" stroke-width=".4289" points="213.0633,-41.8806 205.2546,-34.7199 206.8935,-45.1873 213.0633,-41.8806"/>
</g>
<!-- 8 -->
<g id="node9" class="node">
<title>8</title>
<polygon fill="#d3d3d3" stroke="#000000" points="474,-172.9239 453,-172.9239 453,-154.9239 474,-154.9239 474,-172.9239"/>
<text text-anchor="middle" x="463.5" y="-161.7239" font-family="Times,serif" font-size="9.00" fill="#000000">8</text>
</g>
<!-- 9 -->
<g id="node10" class="node">
<title>9</title>
<polygon fill="#d3d3d3" stroke="#000000" points="207,-172.9239 186,-172.9239 186,-154.9239 207,-154.9239 207,-172.9239"/>
<text text-anchor="middle" x="196.5" y="-161.7239" font-family="Times,serif" font-size="9.00" fill="#000000">9</text>
</g>
<!-- 9&#45;&gt;21 -->
<g id="edge4" class="edge">
<title>9&#45;&gt;21</title>
<path fill="none" stroke="#ff0000" stroke-width=".4791" d="M188.1777,-154.6138C185.0434,-151.4629 181.3107,-148.0978 177.5,-145.5391 144.4561,-123.3513 130.3193,-128.8216 95.5,-109.5391 94.3838,-108.9209 93.2552,-108.2694 92.125,-107.5952"/>
<polygon fill="#ff0000" stroke="#ff0000" stroke-width=".4791" points="93.9221,-104.5901 83.6101,-102.1585 90.155,-110.49 93.9221,-104.5901"/>
</g>
<!-- 9&#45;&gt;22 -->
<g id="edge2" class="edge">
<title>9&#45;&gt;22</title>
<path fill="none" stroke="#ff0000" stroke-width=".3401" stroke-dasharray="1,5" d="M196.5,-154.8198C196.5,-133.7061 196.5,-80.6639 196.5,-47.2799"/>
<polygon fill="#ff0000" stroke="#ff0000" stroke-width=".3401" points="200.0001,-47.1971 196.5,-37.1971 193.0001,-47.1972 200.0001,-47.1971"/>
</g>
<!-- 9&#45;&gt;24 -->
<g id="edge5" class="edge">
<title>9&#45;&gt;24</title>
<path fill="none" stroke="#00ff00" stroke-width=".5112" d="M207.0453,-155.0009C220.3048,-143.7813 243.4077,-124.2326 260.5665,-109.7135"/>
<polygon fill="#00ff00" stroke="#00ff00" stroke-width=".5112" points="263.0702,-112.1799 268.4432,-103.0486 258.5485,-106.8362 263.0702,-112.1799"/>
</g>
<!-- 10 -->
<g id="node11" class="node">
<title>10</title>
<polygon fill="#d3d3d3" stroke="#000000" points="518.5,-172.9239 492.5,-172.9239 492.5,-154.9239 518.5,-154.9239 518.5,-172.9239"/>
<text text-anchor="middle" x="505.5" y="-161.7239" font-family="Times,serif" font-size="9.00" fill="#000000">10</text>
</g>
<!-- 11 -->
<g id="node12" class="node">
<title>11</title>
<polygon fill="#d3d3d3" stroke="#000000" points="562.5,-172.9239 536.5,-172.9239 536.5,-154.9239 562.5,-154.9239 562.5,-172.9239"/>
<text text-anchor="middle" x="549.5" y="-161.7239" font-family="Times,serif" font-size="9.00" fill="#000000">11</text>
</g>
<!-- 12 -->
<g id="node13" class="node">
<title>12</title>
<polygon fill="#d3d3d3" stroke="#000000" points="273.5,-172.9239 247.5,-172.9239 247.5,-154.9239 273.5,-154.9239 273.5,-172.9239"/>
<text text-anchor="middle" x="260.5" y="-161.7239" font-family="Times,serif" font-size="9.00" fill="#000000">12</text>
</g>
<!-- 12&#45;&gt;24 -->
<g id="edge8" class="edge">
<title>12&#45;&gt;24</title>
<path fill="none" stroke="#00ff00" stroke-width=".2628" stroke-dasharray="1,5" d="M263.2863,-154.7076C266.0233,-145.6543 270.3366,-131.3874 274.1835,-118.6629"/>
<polygon fill="#00ff00" stroke="#00ff00" stroke-width=".2628" points="277.5859,-119.5029 277.1296,-108.9179 270.8854,-117.4772 277.5859,-119.5029"/>
</g>
<!-- 13 -->
<g id="node14" class="node">
<title>13</title>
<polygon fill="#d3d3d3" stroke="#000000" points="130.5,-100.1543 104.5,-100.1543 104.5,-82.1543 130.5,-82.1543 130.5,-100.1543"/>
<text text-anchor="middle" x="117.5" y="-88.9543" font-family="Times,serif" font-size="9.00" fill="#000000">13</text>
</g>
<!-- 13&#45;&gt;22 -->
<g id="edge1" class="edge">
<title>13&#45;&gt;22</title>
<path fill="none" stroke="#ff0000" stroke-width=".4699" d="M127.5054,-81.938C139.4558,-70.9301 159.7743,-52.2141 175.2757,-37.9352"/>
<polygon fill="#ff0000" stroke="#ff0000" stroke-width=".4699" points="177.8892,-40.2864 182.873,-30.937 173.1466,-35.1378 177.8892,-40.2864"/>
</g>
<!-- 14 -->
<g id="node15" class="node">
<title>14</title>
<polygon fill="#d3d3d3" stroke="#000000" points="606.5,-172.9239 580.5,-172.9239 580.5,-154.9239 606.5,-154.9239 606.5,-172.9239"/>
<text text-anchor="middle" x="593.5" y="-161.7239" font-family="Times,serif" font-size="9.00" fill="#000000">14</text>
</g>
<!-- 15 -->
<g id="node16" class="node">
<title>15</title>
<polygon fill="#d3d3d3" stroke="#000000" points="650.5,-172.9239 624.5,-172.9239 624.5,-154.9239 650.5,-154.9239 650.5,-172.9239"/>
<text text-anchor="middle" x="637.5" y="-161.7239" font-family="Times,serif" font-size="9.00" fill="#000000">15</text>
</g>
<!-- 16 -->
<g id="node17" class="node">
<title>16</title>
<polygon fill="#d3d3d3" stroke="#000000" points="694.5,-172.9239 668.5,-172.9239 668.5,-154.9239 694.5,-154.9239 694.5,-172.9239"/>
<text text-anchor="middle" x="681.5" y="-161.7239" font-family="Times,serif" font-size="9.00" fill="#000000">16</text>
</g>
<!-- 17 -->
<g id="node18" class="node">
<title>17</title>
<polygon fill="#d3d3d3" stroke="#000000" points="317.5,-172.9239 291.5,-172.9239 291.5,-154.9239 317.5,-154.9239 317.5,-172.9239"/>
<text text-anchor="middle" x="304.5" y="-161.7239" font-family="Times,serif" font-size="9.00" fill="#000000">17</text>
</g>
<!-- 17&#45;&gt;24 -->
<g id="edge13" class="edge">
<title>17&#45;&gt;24</title>
<path fill="none" stroke="#00ff00" stroke-width=".1664" d="M301.7137,-154.7076C298.9767,-145.6543 294.6634,-131.3874 290.8165,-118.6629"/>
<polygon fill="#00ff00" stroke="#00ff00" stroke-width=".1664" points="294.1146,-117.4772 287.8704,-108.9179 287.4141,-119.5029 294.1146,-117.4772"/>
</g>
<!-- 18 -->
<g id="node19" class="node">
<title>18</title>
<polygon fill="#d3d3d3" stroke="#000000" points="738.5,-172.9239 712.5,-172.9239 712.5,-154.9239 738.5,-154.9239 738.5,-172.9239"/>
<text text-anchor="middle" x="725.5" y="-161.7239" font-family="Times,serif" font-size="9.00" fill="#000000">18</text>
</g>
<!-- 19 -->
<g id="node20" class="node">
<title>19</title>
<polygon fill="#d3d3d3" stroke="#000000" points="782.5,-172.9239 756.5,-172.9239 756.5,-154.9239 782.5,-154.9239 782.5,-172.9239"/>
<text text-anchor="middle" x="769.5" y="-161.7239" font-family="Times,serif" font-size="9.00" fill="#000000">19</text>
</g>
<!-- 20 -->
<g id="node21" class="node">
<title>20</title>
<polygon fill="#d3d3d3" stroke="#000000" points="826.5,-172.9239 800.5,-172.9239 800.5,-154.9239 826.5,-154.9239 826.5,-172.9239"/>
<text text-anchor="middle" x="813.5" y="-161.7239" font-family="Times,serif" font-size="9.00" fill="#000000">20</text>
</g>
<!-- 23 -->
<g id="node24" class="node">
<title>23</title>
<ellipse fill="#add8e6" stroke="#add8e6" cx="862.5" cy="-163.9239" rx="18.2703" ry="18.2703"/>
<text text-anchor="middle" x="862.5" y="-161.7239" font-family="Times,serif" font-size="9.00" fill="#000000">23</text>
</g>
<!-- 24&#45;&gt;22 -->
<g id="edge6" class="edge">
<title>24&#45;&gt;22</title>
<path fill="none" stroke="#ff0000" stroke-width=".6567" d="M268.2988,-79.1379C254.7297,-67.6563 234.0796,-50.183 218.4029,-36.9181"/>
<polygon fill="#ff0000" stroke="#ff0000" stroke-width=".6567" points="220.6169,-34.2067 210.7222,-30.419 216.0953,-39.5504 220.6169,-34.2067"/>
</g>
</g>
</svg>
